<?xml version="1.0" standalone="no"?>
<!DOCTYPE svg PUBLIC "-//W3C//DTD SVG 20010904//EN"
 "http://www.w3.org/TR/2001/REC-SVG-20010904/DTD/svg10.dtd">
<svg version="1.0" xmlns="http://www.w3.org/2000/svg"
 width="542.000000pt" height="542.000000pt" viewBox="0 0 542.000000 542.000000"
 preserveAspectRatio="xMidYMid meet">

<g transform="translate(0.000000,542.000000) scale(0.100000,-0.100000)"
fill="#000000" stroke="none">
<path d="M0 2710 l0 -2710 2710 0 2710 0 0 2710 0 2710 -2710 0 -2710 0 0
-2710z m3030 2665 c65 -5 201 -30 285 -52 33 -9 67 -16 75 -17 8 -1 62 -17
120 -35 93 -29 132 -42 205 -71 102 -41 354 -174 455 -241 190 -125 262 -184
435 -357 111 -111 134 -136 185 -202 19 -25 47 -58 62 -75 15 -16 28 -35 28
-42 0 -6 4 -13 9 -15 17 -7 132 -194 213 -347 56 -106 165 -376 183 -455 2
-10 9 -34 15 -52 6 -19 13 -48 15 -65 3 -18 9 -46 15 -63 5 -17 12 -47 15 -66
3 -19 7 -44 9 -55 17 -87 26 -166 21 -175 -3 -5 -2 -10 3 -10 5 0 9 -19 9 -42
1 -24 3 -92 7 -153 11 -221 -22 -519 -85 -755 -176 -663 -583 -1212 -1179
-1593 -101 -65 -364 -195 -475 -235 -364 -133 -748 -189 -1111 -164 -446 32
-852 158 -1218 381 -801 485 -1297 1355 -1295 2268 0 135 7 234 25 378 2 17 6
49 9 73 2 24 9 60 14 80 6 20 13 53 16 72 3 19 12 55 19 80 8 25 20 66 26 93
7 26 17 50 21 53 5 3 9 15 9 27 0 20 30 108 51 149 5 10 9 22 9 28 0 12 129
279 143 295 4 6 34 53 65 105 72 120 99 159 191 272 108 132 261 288 370 376
53 42 98 80 101 83 12 13 202 140 269 178 89 53 226 120 312 156 35 14 73 30
84 35 66 28 333 106 394 115 14 2 60 10 101 19 129 26 257 34 490 30 124 -2
250 -6 280 -9z"/>
<path d="M2550 5350 c-364 -21 -717 -119 -1045 -289 -690 -358 -1183 -990
-1360 -1746 -51 -216 -60 -312 -59 -605 0 -237 3 -293 22 -404 49 -285 116
-493 237 -741 133 -273 280 -479 495 -696 428 -432 931 -682 1540 -765 155
-21 472 -24 625 -5 479 57 904 226 1280 506 575 430 951 1069 1041 1769 57
446 0 907 -161 1311 -359 902 -1180 1538 -2130 1649 -168 19 -329 25 -485 16z
m200 -175 c0 -10 -10 -15 -30 -15 -29 0 -30 -1 -30 -50 0 -43 -3 -50 -20 -50
-17 0 -20 7 -20 50 0 49 -1 50 -30 50 -20 0 -30 5 -30 15 0 12 16 15 80 15 64
0 80 -3 80 -15z m172 -15 c42 -52 7 -100 -71 -100 -95 0 -125 90 -41 123 30
12 94 -1 112 -23z m-364 4 c53 -37 8 -114 -68 -114 -43 0 -90 32 -90 61 0 11
11 31 25 44 29 30 97 34 133 9z m535 -6 c19 -10 23 -43 7 -53 -8 -5 -7 -11 1
-21 6 -7 8 -21 5 -30 -5 -13 -18 -16 -71 -12 -35 2 -67 7 -71 10 -3 4 -3 34 1
68 l7 60 52 -6 c28 -4 59 -11 69 -16z m-705 0 c-3 -7 -19 -14 -38 -16 l-33 -3
6 -54 c5 -46 3 -54 -13 -58 -16 -4 -21 4 -29 45 -16 70 -14 77 17 84 15 3 32
7 37 9 26 9 56 4 53 -7z m910 -33 c2 -2 -2 -30 -9 -64 -12 -54 -16 -61 -37
-61 -18 0 -23 4 -18 16 3 9 9 33 12 53 5 30 2 39 -10 44 -12 5 -20 -4 -32 -34
-16 -39 -39 -59 -68 -59 -20 0 -21 26 -2 33 8 3 23 26 34 50 l20 45 53 -11
c30 -5 55 -11 57 -12z m-1068 0 c6 -8 9 -19 5 -25 -4 -6 1 -20 11 -31 17 -19
17 -20 -3 -40 -26 -27 -103 -39 -103 -16 0 10 11 17 32 19 39 4 51 28 14 28
-31 0 -35 15 -6 23 24 6 27 27 4 27 -8 0 -25 -5 -36 -11 -13 -7 -24 -7 -30 -1
-5 5 3 15 24 25 41 21 72 21 88 2z m-132 -68 c16 -69 15 -77 -6 -77 -13 0 -21
11 -28 38 l-10 37 -29 -52 c-38 -67 -58 -68 -79 -6 -20 58 -20 69 0 77 11 4
20 -5 31 -31 l15 -37 31 52 c41 67 59 67 75 -1z m1310 38 c65 -20 70 -39 7
-29 -52 7 -65 -12 -15 -23 17 -3 33 -9 35 -14 9 -14 -13 -19 -41 -9 -21 8 -29
8 -35 -2 -6 -9 3 -17 31 -26 39 -13 54 -32 25 -32 -30 0 -105 25 -105 35 0 9
16 75 25 103 6 15 11 15 73 -3z m111 -34 c8 -5 11 -16 7 -29 -5 -15 -1 -24 13
-31 30 -17 52 -13 58 9 6 22 6 22 27 14 21 -8 20 -23 -4 -78 -14 -33 -25 -46
-40 -46 -23 0 -23 0 -11 34 9 22 7 26 -22 36 -27 9 -34 8 -44 -7 -7 -9 -13
-20 -13 -25 0 -4 -7 -5 -15 -2 -19 8 -19 25 2 85 19 52 20 54 42 40z m-1685
-56 c-19 -46 -19 -47 18 -68 25 -14 29 -20 18 -27 -8 -5 -22 -4 -33 1 -23 13
-47 5 -47 -15 0 -13 -28 -36 -44 -36 -4 0 1 16 9 36 8 20 15 38 15 40 0 2 -18
12 -41 21 -34 13 -38 18 -25 25 11 6 28 6 48 -1 39 -14 38 -14 38 4 0 17 35
55 49 55 6 0 3 -16 -5 -35z m1874 -14 c11 -7 11 -15 -2 -45 -8 -20 -14 -36
-12 -36 2 0 28 9 58 19 78 27 88 17 55 -53 -25 -52 -48 -69 -62 -46 -3 5 1 23
10 40 18 35 18 35 -52 13 -33 -10 -57 -13 -62 -7 -9 9 36 124 48 124 3 0 12
-4 19 -9z m-2028 -56 c-7 -8 -23 -15 -36 -15 -47 0 -69 -50 -32 -73 17 -11 40
-4 80 25 28 20 33 0 8 -27 -41 -43 -119 -45 -141 -3 -25 46 31 107 100 108 29
0 32 -2 21 -15z m2246 -52 c61 -33 57 -30 49 -42 -4 -7 -19 -4 -45 9 -47 24
-66 8 -21 -18 35 -19 42 -38 11 -28 -11 3 -29 9 -40 12 -33 10 -23 -13 16 -36
58 -33 28 -46 -32 -14 -27 15 -51 29 -53 30 -5 5 53 114 60 114 4 0 28 -12 55
-27z m-1051 -23 c724 -66 1363 -503 1688 -1155 140 -281 207 -526 229 -842 45
-630 -183 -1243 -629 -1688 -220 -220 -497 -396 -775 -493 -203 -72 -487 -122
-691 -122 -227 0 -540 60 -756 146 -282 112 -492 253 -721 483 -230 231 -387
478 -497 781 -133 367 -165 823 -82 1200 75 347 215 642 433 913 438 546 1117
840 1801 777z m-1344 -10 c46 -25 -3 -128 -63 -131 -65 -3 -88 10 -88 51 0 60
95 110 151 80z m2610 -101 c24 -18 46 -33 48 -35 1 -1 -9 -19 -24 -38 -17 -22
-24 -42 -21 -54 4 -12 -1 -25 -13 -36 -23 -21 -44 -13 -36 13 7 25 -65 75 -94
66 -32 -10 -43 3 -25 30 9 14 24 23 36 22 13 -1 31 11 47 31 14 17 29 32 32
32 3 0 26 -14 50 -31z m-2775 -14 c18 -18 23 -32 19 -48 -7 -23 -83 -97 -100
-97 -10 1 -75 83 -75 95 0 19 87 74 118 75 7 0 24 -11 38 -25z m2942 -121 c52
-54 41 -114 -21 -114 -41 0 -84 28 -102 67 -41 87 51 122 123 47z m-3118 32
c0 -18 -15 -36 -30 -36 -23 0 -53 -34 -48 -56 6 -30 33 -40 62 -21 28 19 36
40 11 31 -22 -9 -18 10 8 34 l23 22 23 -24 c22 -23 22 -46 0 -46 -6 0 -24 -13
-41 -30 -39 -39 -90 -42 -114 -5 -15 23 -15 27 3 62 11 23 32 45 53 55 35 18
50 22 50 14z m3219 -120 c9 -11 8 -17 -4 -29 -22 -23 -19 -27 23 -27 26 0 45
-7 57 -20 18 -20 17 -20 -28 -20 l-46 0 4 -45 c3 -25 2 -45 -2 -45 -15 0 -32
38 -33 73 0 39 -10 46 -30 22 -10 -12 -16 -13 -26 -4 -20 16 -18 20 22 67 39
46 46 49 63 28z m-3339 -42 c43 -44 44 -46 26 -60 -11 -8 -41 -14 -68 -14 -54
0 -57 -4 -27 -31 22 -19 20 -49 -4 -49 -7 0 -30 17 -50 38 -45 46 -42 71 9 73
19 1 39 3 44 4 6 1 18 3 27 4 14 1 12 6 -10 29 -21 22 -24 31 -15 40 17 17 20
16 68 -34z m3460 -79 c9 -11 9 -22 1 -46 -15 -43 -16 -42 29 -35 32 5 41 3 49
-13 9 -16 6 -19 -27 -25 -71 -11 -118 -7 -136 13 -19 21 -3 42 17 22 20 -20
25 -12 32 44 8 57 14 65 35 40z m-3636 -42 c3 -4 -8 -20 -26 -37 -42 -38 -21
-47 27 -11 82 63 87 -36 5 -102 -42 -34 -40 4 3 41 38 34 21 49 -19 17 -69
-55 -102 8 -38 72 28 28 36 32 48 20z m3761 -110 c9 -11 10 -26 4 -47 -15 -51
-12 -56 29 -56 39 0 62 -14 62 -37 0 -17 -88 -76 -106 -69 -21 8 -17 24 14 51
l27 24 -39 1 -39 0 7 41 7 41 -30 -21 c-26 -19 -30 -19 -42 -5 -11 13 -6 21
32 54 50 44 57 47 74 23z m-3824 -44 c16 -16 20 -28 15 -52 -7 -34 -53 -107
-68 -107 -14 0 -98 59 -98 69 0 12 68 99 82 104 27 11 49 6 69 -14z m-121
-165 c60 -43 56 -64 -15 -84 -58 -16 -63 -25 -25 -45 26 -14 28 -18 17 -35
-14 -23 -19 -22 -77 15 -23 14 -40 31 -38 38 3 7 26 23 54 37 27 14 51 26 54
28 3 2 -7 13 -22 24 -23 16 -26 23 -18 39 6 10 13 19 15 19 3 0 27 -16 55 -36z
m4104 -33 c40 -65 42 -71 23 -71 -7 0 -21 16 -31 35 -11 19 -25 35 -33 35 -17
0 -16 -10 2 -34 8 -11 15 -26 15 -33 0 -23 -19 -14 -36 18 -10 21 -19 28 -26
21 -6 -6 -3 -23 11 -50 14 -27 17 -43 10 -47 -12 -8 -11 -9 -27 25 -7 14 -22
39 -33 57 l-20 32 53 35 c29 20 54 36 55 36 1 0 18 -26 37 -59z m51 -147 c-18
-13 -18 -15 -2 -50 14 -29 21 -34 38 -29 20 7 38 -7 39 -27 0 -8 -93 -58 -109
-58 -21 0 -21 35 0 51 21 15 21 19 9 49 -11 28 -17 31 -41 26 -20 -4 -31 -1
-38 11 -8 14 1 23 47 49 55 31 57 31 67 12 7 -16 5 -23 -10 -34z m-4205 -28
c0 -18 -15 -36 -30 -36 -24 0 -45 -52 -32 -77 7 -12 7 -25 0 -37 -9 -16 -14
-13 -45 31 -52 73 -54 77 -37 101 13 19 25 22 80 22 35 0 64 -2 64 -4z m4329
-197 c36 -94 35 -89 17 -89 -8 0 -19 13 -24 30 l-11 30 -47 -20 c-26 -11 -48
-19 -49 -18 -1 2 -5 12 -9 24 -5 18 0 24 39 38 47 19 51 25 35 57 -11 20 -5
43 10 34 4 -3 22 -41 39 -86z m-4513 16 c-20 -31 -26 -54 -16 -60 5 -3 19 13
31 34 25 45 45 57 65 40 20 -17 17 -47 -11 -108 -20 -41 -28 -52 -37 -43 -9 9
-6 21 10 51 24 42 26 51 13 51 -4 0 -21 -18 -36 -40 -31 -44 -49 -50 -65 -20
-19 36 30 162 51 129 5 -8 3 -22 -5 -34z m-23 -151 c18 -9 35 -22 39 -28 25
-38 -14 -151 -56 -162 -42 -10 -81 8 -84 41 -3 26 -2 27 25 20 56 -16 77 -12
87 18 13 36 -1 59 -42 69 -25 7 -32 14 -32 33 0 30 17 32 63 9z m4567 -4 c27
-27 40 -63 40 -111 0 -56 -15 -79 -50 -79 -23 0 -35 8 -54 38 -34 52 -40 93
-22 136 18 42 53 49 86 16z m-4585 -242 c37 17 33 -12 -5 -48 -33 -31 -38 -55
-15 -64 8 -3 15 -17 15 -32 0 -22 -3 -25 -22 -21 -13 4 -43 9 -66 13 l-44 7 7
36 c14 77 26 111 48 126 20 15 23 14 40 -6 15 -19 21 -20 42 -11z m4672 -28
c7 -30 12 -68 10 -85 -2 -25 -6 -30 -29 -30 -15 -1 -34 -9 -41 -19 -12 -17
-15 -17 -30 -2 -17 18 -32 62 -43 132 l-6 41 43 10 c75 18 82 15 96 -47z
m-4739 -316 c41 -29 19 -94 -32 -94 -47 0 -65 52 -31 86 28 28 33 29 63 8z
m4740 4 c7 -7 12 -24 12 -38 0 -14 -5 -31 -12 -38 -7 -7 -24 -12 -38 -12 -14
0 -31 5 -38 12 -7 7 -12 24 -12 38 0 14 5 31 12 38 7 7 24 12 38 12 14 0 31
-5 38 -12z m32 -277 c5 -11 10 -60 10 -110 l0 -91 -42 0 c-83 0 -88 5 -87 74
2 86 11 120 33 124 10 2 22 -2 26 -8 6 -9 11 -7 19 9 14 26 27 27 41 2z
m-4711 -69 c1 -38 -3 -80 -8 -95 -12 -30 -41 -36 -61 -12 -12 14 -15 13 -30
-10 -9 -14 -20 -22 -23 -18 -13 13 -7 51 13 76 11 14 20 35 20 46 0 14 -6 21
-20 21 -16 0 -20 7 -20 30 l0 30 63 0 64 0 2 -68z m9 -189 c-2 -19 -10 -29
-23 -31 -63 -9 -65 -11 -65 -50 0 -51 14 -62 67 -55 41 5 43 5 43 -20 0 -22
-6 -26 -39 -32 -22 -4 -48 -2 -59 4 -24 13 -42 61 -42 113 0 67 28 96 93 97
25 1 28 -2 25 -26z m4667 7 c11 -12 20 -41 22 -73 8 -103 -67 -188 -111 -125
-32 45 -12 173 31 206 23 17 37 15 58 -8z m-109 -264 c-6 -32 -5 -32 44 -45
50 -13 58 -23 41 -50 -8 -12 -16 -13 -49 -3 -53 16 -52 16 -63 -18 -11 -29
-29 -41 -29 -19 0 6 6 37 14 68 8 31 17 69 20 84 9 39 29 23 22 -17z m-4533
16 c9 -10 21 -42 27 -72 12 -65 13 -60 -5 -60 -9 0 -15 9 -15 23 0 33 -11 67
-21 67 -5 0 -8 -25 -8 -56 2 -57 -10 -78 -38 -67 -22 8 -43 71 -43 126 0 63
21 52 24 -12 1 -23 8 -47 14 -53 9 -9 12 0 12 39 0 82 18 104 53 65z m4585
-227 c2 -2 1 -13 -3 -25 -5 -17 -12 -20 -34 -15 -25 5 -28 2 -39 -32 -11 -34
-10 -40 9 -54 15 -11 19 -22 15 -37 l-7 -21 -51 19 c-61 23 -71 31 -62 54 5
13 14 15 34 11 24 -5 28 -2 38 33 16 51 15 52 -8 52 -20 0 -25 15 -14 43 5 13
13 12 62 -5 31 -11 59 -21 60 -23z m-4567 11 c78 -22 81 -40 21 -118 -46 -59
-47 -59 -55 -33 -6 17 -5 30 3 39 15 19 -12 86 -34 86 -9 0 -16 4 -16 9 0 5
-3 17 -7 26 -5 13 -2 16 13 12 10 -3 44 -13 75 -21z m113 -171 c3 -9 -1 -41
-9 -72 -8 -31 -13 -58 -11 -60 2 -2 16 2 31 9 24 11 29 10 41 -7 13 -18 11
-21 -41 -48 -31 -15 -61 -25 -67 -21 -10 7 -6 72 8 123 7 25 0 26 -47 7 -10
-5 -19 1 -27 18 -10 23 -8 25 41 44 65 25 73 26 81 7z m4266 -61 c-24 -55 -24
-54 -6 -54 8 0 20 16 27 35 7 19 16 35 19 35 16 0 18 -15 5 -41 -19 -35 -19
-49 -1 -49 8 0 21 18 30 40 14 36 36 54 36 31 0 -19 -53 -131 -62 -131 -11 0
-108 49 -108 55 0 19 56 125 66 125 10 0 9 -11 -6 -46z m-4148 -189 c33 -72
32 -107 -3 -126 -33 -17 -74 6 -109 63 -17 28 -29 56 -26 64 4 10 87 61 104
64 2 0 17 -29 34 -65z m4126 38 c26 -15 48 -28 50 -29 2 -1 -2 -12 -8 -24 -11
-20 -13 -20 -35 -6 -33 22 -34 21 -32 -26 2 -42 1 -43 -32 -46 l-34 -4 27 -21
c19 -15 25 -27 21 -40 -10 -24 -19 -22 -75 16 -47 32 -49 34 -34 55 9 13 26
22 42 22 45 0 58 14 44 45 -13 28 -16 68 -5 78 11 11 22 8 71 -20z m-4044
-184 c23 -18 56 -67 56 -84 0 -3 -6 -5 -13 -5 -7 0 -21 16 -31 35 -24 44 -40
36 -20 -10 37 -90 -14 -118 -69 -37 -34 51 -43 82 -23 82 9 0 16 -6 16 -12 0
-18 40 -81 47 -75 3 3 -2 27 -11 53 -12 35 -13 51 -5 61 15 18 22 17 53 -8z
m3895 -60 c21 -65 21 -72 7 -95 -21 -31 -38 -31 -30 1 6 24 5 25 -50 25 -31 0
-56 4 -56 8 0 18 26 32 62 32 42 0 44 3 24 39 -11 19 -11 29 -2 43 6 10 13 18
16 18 4 0 16 -32 29 -71z m-3779 -136 c0 -29 3 -53 7 -53 4 0 16 9 28 20 20
19 23 19 35 5 11 -14 7 -22 -30 -60 -41 -42 -45 -44 -62 -28 -13 12 -18 31
-18 70 0 54 -8 65 -30 38 -16 -19 -34 -19 -49 -1 -10 12 -2 22 40 54 48 37 54
39 66 24 7 -9 13 -41 13 -69z m3690 -20 c46 6 49 5 38 -13 -7 -11 -29 -21 -55
-25 -50 -7 -62 -20 -32 -35 20 -11 20 -13 4 -30 -17 -19 -19 -18 -66 22 -45
38 -48 43 -34 57 12 13 19 13 35 3 29 -18 30 -16 30 31 0 24 6 49 13 56 10 10
13 4 15 -30 l3 -42 49 6z m-3530 -102 c14 -10 33 -32 43 -50 17 -28 17 -31 3
-31 -9 0 -21 11 -27 24 -21 46 -81 59 -95 21 -8 -20 19 -61 46 -68 18 -5 19
-3 9 9 -8 10 -9 18 -3 24 7 7 20 0 37 -18 l27 -28 -25 -24 -25 -23 -40 39
c-40 38 -70 82 -70 104 0 5 9 19 21 31 24 24 57 20 99 -10z m3398 -3 c7 -7 12
-26 12 -42 -1 -80 -133 -145 -162 -81 -31 68 99 174 150 123z m-3214 -159 c37
-43 34 -75 -9 -96 -29 -14 -73 1 -120 41 l-40 35 44 45 44 45 28 -20 c15 -10
39 -33 53 -50z m3026 7 c19 -21 37 -32 48 -30 23 7 48 -32 32 -51 -9 -11 -16
-11 -30 -3 -15 9 -25 5 -61 -22 -24 -19 -46 -35 -48 -37 -2 -1 2 -9 8 -17 10
-12 8 -17 -8 -25 -16 -9 -23 -7 -35 11 -11 16 -12 25 -5 35 8 9 5 25 -11 58
-22 45 -22 47 -4 60 11 7 30 22 44 34 33 27 36 27 70 -13z m-2889 -98 c22 -12
45 -36 54 -55 16 -32 15 -36 -1 -54 -29 -32 -87 -26 -128 14 -45 42 -53 70
-27 96 27 27 54 26 102 -1z m2659 -26 c0 -5 -16 -17 -35 -28 -19 -10 -35 -21
-35 -25 0 -15 15 -17 41 -4 33 18 39 18 39 5 0 -5 -14 -17 -31 -26 -23 -11
-28 -19 -20 -27 8 -8 21 -5 50 11 52 29 64 10 14 -21 -41 -26 -80 -47 -85 -47
-7 0 -62 109 -58 113 3 2 25 16 50 30 46 27 70 34 70 19z m-2483 -77 c59 -25
95 -65 58 -65 -8 0 -25 11 -39 25 -27 27 -55 32 -74 13 -29 -29 -6 -66 50 -77
17 -4 33 -12 36 -19 11 -35 -112 14 -129 52 -14 31 -4 73 19 79 31 8 42 7 79
-8z m2362 -67 l22 -37 -21 -11 c-18 -9 -23 -7 -38 19 -17 31 -32 40 -32 21 0
-21 -42 -99 -56 -104 -10 -4 -23 13 -44 53 -25 50 -27 60 -14 65 26 10 31 7
44 -24 7 -16 16 -30 20 -30 4 0 15 20 25 45 9 25 24 52 32 61 17 17 16 18 62
-58z m-2235 6 c9 -8 16 -22 16 -29 0 -21 15 -26 44 -15 14 5 36 6 47 1 20 -7
18 -9 -19 -24 -23 -9 -42 -19 -42 -21 0 -2 7 -20 15 -40 8 -20 13 -36 11 -36
-18 0 -39 17 -51 41 -14 25 -18 27 -44 18 -20 -7 -36 -7 -48 0 -15 8 -16 11
-3 15 61 22 70 27 65 36 -13 21 -23 70 -15 70 5 0 16 -7 24 -16z m2030 -81
c21 -44 25 -58 14 -64 -21 -14 -36 -10 -43 11 -7 23 -11 24 -53 9 -28 -9 -30
-14 -25 -40 5 -24 2 -29 -14 -29 -15 0 -26 14 -42 51 -11 28 -18 55 -15 60 9
15 44 10 44 -5 0 -23 14 -26 49 -13 27 10 31 16 26 36 -5 21 6 40 25 41 3 0
18 -25 34 -57z m-1784 -11 c0 -4 -4 -22 -9 -40 -9 -31 -9 -33 12 -26 12 3 34
13 49 20 15 8 37 14 49 14 19 0 21 -4 14 -36 -11 -62 -23 -84 -46 -84 -19 0
-20 4 -14 41 l7 40 -39 -17 c-50 -22 -103 -30 -103 -14 0 6 10 34 21 61 15 34
27 49 40 49 11 0 19 -3 19 -8z m1568 -14 c-2 -6 -19 -17 -38 -23 -40 -13 -57
-42 -19 -31 70 19 72 19 67 5 -3 -8 -19 -18 -36 -23 -18 -5 -32 -15 -32 -22 0
-18 8 -17 59 1 35 12 41 12 41 0 0 -8 -21 -20 -52 -30 -80 -23 -83 -22 -101
42 -9 31 -16 58 -14 59 4 4 102 32 115 33 8 1 12 -4 10 -11z m-1307 -64 c13
-11 16 -21 9 -29 -5 -6 -8 -24 -7 -41 2 -27 0 -29 -40 -32 -46 -3 -115 24 -93
38 6 4 25 1 42 -7 20 -11 33 -12 40 -5 13 13 2 32 -18 32 -8 0 -14 7 -14 15 0
11 7 14 25 9 15 -4 25 -2 25 4 0 6 -14 12 -32 14 -17 2 -34 9 -36 17 -7 20 73
8 99 -15z m1155 -24 c18 -60 17 -67 -6 -73 -16 -4 -22 3 -33 42 -9 35 -17 46
-32 46 -16 0 -21 -9 -26 -48 -5 -49 -19 -67 -51 -67 -22 0 -23 13 -3 30 9 8
15 29 15 56 0 42 1 43 43 53 68 15 78 11 93 -39z m-998 10 c12 0 22 -6 22 -13
0 -10 -13 -13 -42 -13 -42 1 -42 1 -50 -43 -9 -52 -8 -52 -35 -45 -19 5 -19
10 -11 52 15 76 14 75 56 68 20 -3 47 -6 60 -6z m787 -30 c0 -14 6 -30 14 -36
19 -15 8 -42 -21 -53 -13 -4 -46 -11 -74 -15 l-51 -6 -7 31 c-3 17 -6 46 -6
65 0 29 3 33 33 37 17 2 50 4 72 3 36 -1 40 -4 40 -26z m-591 -11 c54 -43 19
-99 -62 -99 -72 0 -121 36 -107 80 13 42 124 55 169 19z m404 -12 c29 -26 28
-33 -7 -68 -34 -34 -92 -39 -141 -14 -29 15 -34 24 -30 55 7 57 126 75 178 27z
m-198 13 c0 -5 -13 -10 -30 -10 -29 0 -30 -1 -30 -50 0 -46 -2 -50 -25 -50
-23 0 -24 2 -18 50 l6 50 -32 0 c-17 0 -31 5 -31 10 0 6 33 10 80 10 47 0 80
-4 80 -10z"/>
<path d="M2810 5145 c-15 -19 -4 -52 21 -60 28 -9 57 3 64 26 9 27 -11 49 -45
49 -15 0 -33 -7 -40 -15z"/>
<path d="M2466 5147 c-28 -21 -17 -61 17 -65 51 -6 79 45 38 68 -25 13 -33 13
-55 -3z"/>
<path d="M3010 5137 c0 -18 32 -28 51 -16 17 10 11 16 -24 24 -20 5 -27 4 -27
-8z"/>
<path d="M3006 5093 c-12 -12 -6 -21 20 -27 24 -6 55 7 43 17 -9 9 -56 16 -63
10z"/>
<path d="M2507 4810 c-293 -34 -540 -111 -782 -244 -299 -164 -564 -413 -747
-702 -220 -348 -330 -728 -331 -1144 -1 -473 140 -905 414 -1273 332 -445 797
-727 1344 -813 148 -23 419 -23 578 0 339 50 656 183 935 393 96 72 278 248
354 342 519 646 623 1520 268 2266 -111 234 -225 392 -424 590 -142 141 -237
216 -398 313 -211 127 -473 220 -728 258 -120 18 -381 25 -483 14z m-190 -477
c87 -64 196 -144 243 -178 l85 -62 2 -324 2 -324 26 -3 25 -3 0 328 1 328 150
110 c83 61 189 138 236 173 102 74 133 79 228 33 118 -56 277 -201 363 -330
80 -121 178 -194 326 -242 92 -30 160 -77 164 -112 2 -15 -17 -91 -41 -170
-25 -78 -66 -208 -91 -288 l-45 -145 -301 -99 c-247 -82 -300 -103 -300 -117
0 -27 25 -32 73 -15 23 9 65 22 92 31 52 15 408 138 435 150 10 4 79 -42 200
-133 267 -201 283 -214 297 -241 47 -93 -45 -399 -168 -560 -109 -142 -130
-199 -140 -383 -8 -158 -20 -211 -49 -227 -11 -6 -139 -10 -318 -10 l-299 0
-69 100 c-76 110 -291 411 -303 423 -4 4 -15 1 -25 -6 -17 -13 -11 -24 90
-165 225 -314 264 -371 264 -386 0 -23 -162 -525 -182 -563 -6 -13 -32 -33
-57 -45 -42 -21 -60 -23 -216 -23 l-170 0 -145 45 c-182 56 -267 60 -395 17
-44 -15 -109 -30 -145 -33 -56 -6 -67 -4 -81 12 -9 11 -54 134 -99 274 -45
140 -86 265 -91 278 -5 13 -9 30 -9 39 0 15 68 116 185 276 132 180 177 248
171 262 -10 26 -33 16 -61 -27 -16 -24 -98 -141 -183 -260 l-154 -218 -283 0
c-178 0 -294 4 -313 11 -40 14 -103 105 -131 191 -40 123 -52 195 -60 378 -10
214 -20 249 -113 391 -31 46 -63 98 -72 116 -17 33 -21 81 -8 99 7 10 430 330
469 354 18 12 57 1 312 -85 289 -96 324 -103 308 -62 -3 9 -120 52 -289 107
-156 51 -288 97 -295 104 -6 6 -21 43 -33 81 -12 39 -35 113 -51 165 -69 219
-99 321 -99 338 0 30 53 104 116 161 102 93 198 148 365 206 165 57 222 97
314 220 66 87 138 155 164 155 11 0 91 -52 178 -117z"/>
<path d="M3131 4383 c-28 -21 -84 -63 -126 -93 -41 -30 -75 -58 -75 -61 0 -4
15 -10 33 -13 19 -3 59 -22 90 -41 31 -19 82 -51 113 -70 l57 -34 54 46 c37
32 53 52 50 64 -4 13 4 20 32 26 28 7 36 14 35 31 0 12 5 22 13 22 7 0 13 5
13 11 0 5 4 8 9 4 5 -3 13 -1 16 5 17 27 -168 140 -230 140 -22 0 -49 -12 -84
-37z"/>
<path d="M2214 4275 c-24 -24 -50 -58 -59 -75 l-15 -30 25 10 c14 5 25 8 26 7
0 -1 2 -11 4 -21 5 -27 65 -78 85 -73 22 6 50 -10 50 -27 0 -8 11 -17 24 -20
14 -3 28 -15 31 -26 3 -11 10 -20 15 -20 5 0 7 -7 4 -15 -11 -26 12 -16 57 26
24 22 61 52 82 66 20 14 37 28 36 32 0 3 -61 52 -136 109 -88 65 -146 102
-162 102 -16 0 -39 -15 -67 -45z"/>
<path d="M3583 4144 c4 -7 0 -14 -8 -18 -8 -3 -12 -11 -9 -19 2 -7 -4 -22 -16
-32 -11 -10 -20 -24 -20 -32 0 -8 -18 -33 -40 -55 -22 -23 -40 -46 -40 -52 0
-5 -9 -1 -21 10 -18 17 -21 17 -18 2 2 -9 0 -17 -6 -17 -5 0 -12 -8 -16 -18
-8 -23 69 -140 137 -207 92 -91 200 -156 257 -156 16 0 18 3 9 12 -17 17 -15
28 4 28 10 0 14 5 10 16 -3 8 1 26 10 39 10 16 14 34 10 50 -4 17 -2 25 7 25
16 0 67 57 58 65 -3 4 2 11 12 16 9 6 15 14 12 20 -4 5 0 9 7 9 7 1 -5 10 -27
22 -82 42 -155 108 -222 198 -37 50 -106 122 -90 94z"/>
<path d="M1983 4036 c-74 -54 -134 -85 -238 -121 -85 -29 -137 -54 -197 -91
-35 -22 -36 -24 -26 -61 5 -21 12 -51 15 -68 5 -28 36 -65 53 -65 4 0 10 -19
14 -42 4 -23 14 -47 24 -55 16 -12 16 -14 -2 -24 -14 -9 -15 -13 -5 -19 10 -7
10 -11 -1 -25 -17 -20 44 5 155 65 43 23 130 64 193 91 161 69 263 134 291
186 9 18 7 20 -12 19 -14 -1 -26 8 -34 26 -8 14 -27 32 -43 40 -25 11 -30 18
-28 44 2 38 -47 101 -75 96 -9 -2 -17 1 -17 7 0 6 4 11 10 11 5 0 7 7 4 15 -9
22 -13 20 -81 -29z"/>
<path d="M3210 3590 c0 -114 4 -170 11 -170 17 0 203 62 216 73 10 7 -3 27
-50 77 -34 37 -84 95 -112 128 -27 34 -53 61 -57 61 -5 1 -8 -75 -8 -169z"/>
<path d="M4086 3709 c1 -27 -2 -52 -7 -55 -5 -3 -9 -14 -9 -25 0 -11 -11 -31
-25 -45 -26 -26 -32 -44 -15 -44 6 0 10 -7 10 -16 0 -14 -3 -14 -16 -3 -13 10
-17 10 -24 -1 -6 -9 -3 -18 7 -25 14 -11 13 -13 -6 -18 -15 -4 -19 -10 -14
-24 7 -20 44 -63 54 -63 9 0 26 45 40 105 6 28 22 82 36 121 30 87 28 125 -8
134 -25 7 -25 6 -23 -41z"/>
<path d="M1340 3674 c-44 -30 -100 -88 -100 -104 0 -8 14 -56 30 -105 17 -50
41 -123 53 -163 12 -39 24 -71 27 -70 3 2 29 29 58 60 l54 57 -29 37 c-26 35
-28 44 -26 116 1 42 -2 80 -7 83 -6 4 -10 17 -10 30 0 13 -5 27 -11 31 -6 3
-9 15 -6 25 6 23 -1 24 -33 3z"/>
<path d="M2096 3657 c-11 -7 -76 -37 -145 -67 -69 -30 -124 -59 -122 -65 5
-11 267 -105 294 -105 16 0 17 11 15 122 -2 70 -7 123 -13 124 -5 2 -19 -2
-29 -9z"/>
<path d="M2515 3395 c-180 -39 -339 -146 -442 -297 -104 -154 -137 -269 -131
-463 4 -113 8 -141 35 -218 70 -198 204 -348 388 -433 100 -46 182 -64 298
-64 206 0 380 70 516 209 230 233 284 573 139 871 -45 93 -61 116 -142 195
-105 104 -191 154 -324 191 -100 28 -237 31 -337 9z m285 -200 c236 -63 401
-262 417 -505 17 -261 -167 -509 -421 -570 -131 -30 -303 -4 -416 66 -165 100
-270 285 -270 474 0 238 180 472 411 534 70 19 210 20 279 1z"/>
<path d="M1176 2923 c-71 -54 -149 -112 -175 -130 -25 -18 -66 -50 -90 -71
-43 -37 -44 -39 -32 -72 9 -29 16 -35 41 -37 21 -2 30 2 30 12 0 8 6 15 13 15
7 0 22 8 33 18 11 9 44 30 74 46 30 16 69 39 87 52 17 13 35 24 38 24 4 0 21
10 38 23 42 30 69 45 90 53 21 8 22 41 3 91 -8 21 -16 46 -18 56 -2 15 -28 -1
-132 -80z"/>
<path d="M4069 2998 c-1 -7 -1 -16 0 -21 3 -17 -41 -192 -63 -249 -34 -92
-138 -300 -191 -383 -52 -82 -113 -212 -134 -283 -19 -67 -34 -184 -21 -162 5
9 18 8 51 -3 24 -8 74 -20 111 -27 37 -7 72 -18 78 -25 6 -7 20 -11 30 -8 11
3 26 0 34 -6 11 -9 20 -9 37 1 17 10 23 10 26 1 8 -22 20 -14 27 18 6 30 26
32 26 3 0 -16 26 -19 35 -4 5 8 11 7 21 -1 8 -6 14 -10 14 -8 0 2 11 36 25 74
13 39 25 78 25 88 0 9 5 17 10 17 6 0 13 8 17 18 3 9 22 40 43 67 20 28 47 71
60 97 21 42 21 48 7 62 -17 18 -37 21 -37 7 0 -5 7 -11 15 -15 8 -3 15 -11 15
-17 0 -7 -8 -5 -20 6 -11 10 -28 15 -40 12 -30 -8 -36 17 -11 49 30 38 28 56
-6 48 -23 -6 -25 -5 -19 12 4 10 10 35 13 54 8 47 32 83 51 75 9 -3 19 0 24 7
6 10 8 9 8 -3 0 -8 -5 -20 -12 -27 -7 -7 -9 -12 -5 -12 4 0 2 -10 -4 -22 l-12
-23 22 20 c18 16 26 17 41 7 12 -7 21 -8 25 -2 3 6 11 10 17 10 7 0 9 -17 5
-47 -5 -38 -4 -43 4 -23 6 13 13 27 17 30 19 14 51 141 55 218 3 55 -27 93
-142 177 -115 84 -182 134 -230 173 -26 21 -41 29 -42 20z m-36 -306 c-4 -9
-13 -28 -20 -41 -11 -22 -13 -23 -19 -7 -4 10 -2 21 3 25 6 3 13 16 17 29 4
12 11 20 16 17 5 -3 6 -13 3 -23z m48 -39 c0 -10 3 -13 5 -6 6 13 34 6 34 -8
0 -4 11 -20 26 -34 14 -14 23 -29 19 -34 -3 -5 3 -16 12 -23 27 -20 50 -50 57
-75 5 -16 1 -25 -15 -33 -18 -10 -26 -8 -55 22 -18 18 -34 41 -34 50 0 10 -12
25 -27 35 -35 22 -43 33 -36 50 3 7 -1 13 -8 13 -12 0 -11 2 0 9 11 7 10 12
-8 22 -28 18 -27 29 4 29 17 0 25 -6 26 -17z m154 -103 c3 -5 -1 -10 -9 -10
-9 0 -16 5 -16 10 0 6 4 10 9 10 6 0 13 -4 16 -10z"/>
<path d="M1433 2668 c1 -17 -3 -22 -15 -20 -10 2 -18 -1 -18 -6 0 -5 -12 -14
-27 -21 -16 -7 -51 -28 -80 -47 -28 -19 -54 -34 -57 -34 -3 0 -16 -11 -30 -25
-14 -14 -34 -25 -45 -25 -11 0 -33 -11 -49 -25 -17 -14 -36 -25 -44 -25 -30 0
-40 -41 -23 -95 10 -31 19 -114 24 -220 5 -93 14 -188 21 -210 l12 -40 231 0
c128 0 244 -4 260 -8 27 -7 27 -7 21 35 -3 24 -9 64 -14 89 -9 44 -31 231 -45
384 -9 86 -37 182 -77 258 -32 59 -49 73 -45 35z m-63 -326 c0 -5 11 -14 25
-20 56 -26 80 -162 40 -230 -24 -41 -83 -72 -136 -72 -48 0 -112 38 -133 78
-19 37 -32 122 -18 122 6 0 14 14 17 32 8 33 60 85 82 80 7 -2 13 1 13 6 0 5
25 10 55 11 30 0 55 -3 55 -7z"/>
<path d="M1231 2241 c-12 -16 -21 -42 -21 -58 l0 -28 20 25 c10 14 17 26 15
29 -2 2 2 16 11 32 19 38 1 37 -25 0z"/>
<path d="M1325 2260 c3 -5 16 -10 28 -10 18 0 19 2 7 10 -20 13 -43 13 -35 0z"/>
<path d="M1317 2204 c-8 -8 1 -24 14 -24 5 0 9 7 9 15 0 15 -12 20 -23 9z"/>
<path d="M1234 2121 c14 -15 66 -36 66 -25 0 4 -67 44 -75 44 -5 0 0 -9 9 -19z"/>
<path d="M3698 2426 c-82 -27 -148 -53 -148 -58 0 -12 131 -198 140 -198 4 0
22 28 40 63 18 34 51 94 74 132 48 78 58 103 48 107 -4 2 -73 -19 -154 -46z"/>
<path d="M1575 2440 c-3 -4 2 -75 10 -156 8 -82 15 -157 15 -166 0 -10 4 -18
9 -18 16 0 194 261 184 271 -15 15 -212 78 -218 69z"/>
<path d="M4356 2295 c4 -8 11 -15 16 -15 6 0 5 6 -2 15 -7 8 -14 15 -16 15 -2
0 -1 -7 2 -15z"/>
<path d="M2625 1663 c-21 -32 -51 -75 -67 -95 -16 -21 -27 -42 -24 -47 3 -5
26 -12 51 -16 25 -3 98 -19 162 -36 64 -16 119 -27 121 -24 3 2 -15 33 -39 68
-24 34 -66 95 -94 134 -27 40 -55 73 -61 73 -6 0 -28 -26 -49 -57z"/>
<path d="M1220 1663 c-32 -11 -40 -34 -22 -62 35 -55 28 -53 277 -59 128 -3
241 -2 249 1 14 6 12 13 -13 53 -34 55 -10 51 -303 55 -98 1 -175 6 -172 11 6
9 6 9 -16 1z"/>
<path d="M3615 1649 c-10 -15 3 -25 16 -12 7 7 7 13 1 17 -6 3 -14 1 -17 -5z"/>
<path d="M3733 1634 c-3 -8 0 -21 6 -27 9 -9 6 -16 -11 -29 -22 -16 -22 -17
-4 -24 13 -5 23 -1 32 11 12 16 17 17 39 5 37 -20 40 -6 5 23 -16 14 -30 33
-30 41 0 21 -29 21 -37 0z"/>
<path d="M3879 1639 c-11 -7 -9 -10 9 -15 12 -4 22 -12 22 -19 0 -7 7 -15 15
-19 8 -3 15 -12 15 -21 0 -17 18 -19 39 -6 13 8 13 12 1 26 -12 15 -12 19 3
30 23 17 21 35 -4 35 -12 0 -23 -8 -26 -20 -7 -25 -18 -25 -42 -1 -12 12 -23
16 -32 10z"/>
<path d="M3812 1625 c-17 -19 -1 -19 24 0 14 11 15 14 4 14 -8 0 -21 -6 -28
-14z"/>
<path d="M3620 1592 c0 -10 22 -32 32 -32 5 0 3 9 -4 20 -13 20 -28 27 -28 12z"/>
<path d="M4065 1570 c3 -5 11 -10 16 -10 6 0 7 5 4 10 -3 6 -11 10 -16 10 -6
0 -7 -4 -4 -10z"/>
<path d="M3588 1563 c7 -3 16 -2 19 1 4 3 -2 6 -13 5 -11 0 -14 -3 -6 -6z"/>
<path d="M3865 1560 c3 -5 8 -10 11 -10 2 0 4 5 4 10 0 6 -5 10 -11 10 -5 0
-7 -4 -4 -10z"/>
<path d="M2378 1490 c-43 -3 -83 -11 -89 -17 -8 -8 23 -10 107 -7 90 2 122 0
138 -12 22 -15 24 -15 -54 -19 -75 -4 -84 -9 -86 -43 -2 -38 20 -62 31 -35 6
17 7 17 21 -1 13 -19 14 -19 38 7 28 30 36 33 36 13 0 -25 47 -25 72 1 12 13
27 22 32 20 6 -3 19 0 29 5 12 6 37 5 69 -2 36 -7 53 -7 58 0 5 8 15 8 34 0
15 -5 47 -10 71 -10 47 0 59 -8 45 -29 -5 -9 -17 -11 -35 -7 -16 4 -31 3 -34
-2 -4 -6 -16 -6 -31 0 -18 7 -21 11 -11 17 7 5 9 11 4 14 -5 3 -15 2 -22 -3
-11 -6 -9 -18 12 -59 22 -44 24 -57 15 -89 -6 -20 -14 -42 -18 -47 -5 -6 -5
-17 0 -24 6 -10 15 -1 32 35 16 35 28 48 41 46 21 -4 21 2 1 33 -9 13 -13 28
-10 34 8 13 46 1 46 -15 0 -7 8 -17 17 -22 22 -13 43 7 32 30 -5 10 -13 27
-19 37 -12 24 9 34 55 25 20 -3 35 -1 40 6 11 18 3 21 -102 36 -121 17 -171
27 -248 48 -70 19 -95 20 -95 4 0 -7 -6 -5 -17 4 -10 9 -36 19 -58 22 -22 4
-47 8 -55 10 -8 1 -50 0 -92 -4z m187 -118 c-8 -8 -25 10 -19 20 4 6 9 5 15
-3 4 -7 6 -15 4 -17z"/>
<path d="M1930 1416 c0 -8 5 -18 11 -21 6 -4 8 -13 5 -21 -3 -7 1 -26 8 -41
14 -28 34 -86 41 -113 24 -109 43 -139 42 -66 -1 42 -4 55 -14 52 -9 -4 -13 4
-13 25 0 17 -4 28 -9 24 -11 -6 -17 11 -26 80 -4 28 -12 56 -17 63 -8 9 -6 12
5 12 9 0 19 -4 22 -10 10 -17 25 -11 25 10 0 17 -7 20 -40 20 -28 0 -40 -4
-40 -14z"/>
<path d="M3372 1389 c-12 -5 -22 -11 -22 -14 0 -4 5 -3 10 0 19 12 31 -5 19
-26 -6 -11 -8 -28 -4 -37 5 -13 10 -9 19 18 8 19 16 42 20 51 8 18 -8 20 -42
8z"/>
<path d="M2510 1314 c0 -30 -3 -34 -19 -29 -11 3 -22 1 -26 -5 -3 -6 -11 -8
-16 -5 -20 13 -27 -7 -11 -37 8 -18 17 -27 20 -20 8 25 43 12 57 -21 17 -42
61 -86 102 -103 38 -16 99 -18 108 -4 3 6 14 10 24 10 20 0 51 30 51 49 0 7
-13 2 -30 -13 -63 -53 -154 -43 -206 23 -25 31 -29 46 -33 114 -3 76 -21 111
-21 41z"/>
<path d="M2453 1323 c-22 -8 -15 -32 7 -26 11 3 20 12 20 19 0 14 -6 16 -27 7z"/>
<path d="M2410 1219 c0 -5 5 -7 10 -4 6 3 10 8 10 11 0 2 -4 4 -10 4 -5 0 -10
-5 -10 -11z"/>
<path d="M3336 1212 c-3 -5 -8 -29 -11 -53 l-5 -44 15 49 c15 44 15 71 1 48z"/>
<path d="M2410 1184 c0 -10 5 -26 10 -34 7 -11 8 -8 6 13 -3 32 -16 49 -16 21z"/>
<path d="M2915 1166 c-17 -25 -12 -51 10 -60 11 -4 14 5 13 39 0 25 -2 45 -4
45 -2 0 -10 -11 -19 -24z"/>
<path d="M2434 1118 c-4 -13 -2 -24 5 -26 6 -2 11 -13 11 -23 0 -13 10 -24 30
-30 17 -6 30 -18 30 -26 0 -11 7 -14 28 -9 26 6 26 6 7 -9 -11 -9 -25 -13 -33
-10 -7 2 -11 1 -8 -4 3 -5 48 -14 100 -21 52 -8 93 -17 90 -22 -3 -4 -2 -8 3
-9 38 -4 70 -12 78 -20 5 -5 18 -9 29 -9 17 0 15 3 -10 26 -16 15 -24 23 -17
20 6 -3 14 -2 18 4 3 5 0 10 -7 10 -7 0 -4 6 7 12 28 15 28 15 21 27 -5 7 -13
7 -24 2 -9 -5 -41 -17 -70 -26 -47 -14 -54 -14 -68 0 -9 8 -22 15 -30 15 -8 0
-13 5 -11 11 1 6 -11 14 -28 16 -16 2 -31 8 -33 14 -2 5 -8 9 -14 9 -13 0 -66
59 -74 83 -8 24 -21 21 -30 -5z"/>
<path d="M2510 1117 c0 -7 9 -18 19 -24 16 -10 18 -9 14 7 -6 21 -33 36 -33
17z"/>
<path d="M2791 1090 c-30 -26 -58 -40 -87 -45 -32 -4 -42 -10 -37 -21 3 -7 12
-14 21 -14 30 0 102 33 102 46 0 8 4 14 10 14 10 0 45 48 39 54 -2 2 -24 -13
-48 -34z"/>
<path d="M2858 1075 c-28 -38 -22 -57 12 -35 14 9 23 60 10 60 -3 0 -13 -11
-22 -25z"/>
<path d="M2565 1081 c-5 -9 0 -20 16 -32 27 -21 38 -23 59 -9 11 7 8 10 -16
10 -22 0 -34 6 -41 22 -7 17 -11 19 -18 9z"/>
<path d="M2052 1050 c0 -14 2 -19 5 -12 2 6 2 18 0 25 -3 6 -5 1 -5 -13z"/>
<path d="M3295 1061 c-3 -5 -1 -12 5 -16 5 -3 10 1 10 9 0 18 -6 21 -15 7z"/>
<path d="M2060 1013 c0 -23 35 -93 46 -93 8 0 14 5 14 10 0 6 -7 10 -16 10 -8
0 -13 4 -10 9 3 5 -1 23 -10 40 -15 30 -24 39 -24 24z"/>
<path d="M3251 969 c-12 -28 -20 -53 -18 -56 8 -7 44 50 51 80 11 45 -9 31
-33 -24z"/>
<path d="M2430 990 c-12 -8 -9 -10 13 -10 15 0 27 5 27 10 0 13 -20 13 -40 0z"/>
<path d="M1436 4811 c-25 -28 -17 -55 17 -59 37 -4 59 15 55 47 -4 34 -46 41
-72 12z"/>
<path d="M4075 4710 c-27 -28 -27 -28 -7 -39 28 -15 28 -15 52 18 20 29 20 30
2 40 -15 8 -24 5 -47 -19z"/>
<path d="M1270 4705 c-10 -12 -9 -20 4 -40 20 -30 37 -32 60 -6 14 15 15 24 6
40 -13 25 -52 28 -70 6z"/>
<path d="M4215 4600 c-13 -41 39 -86 70 -60 20 17 19 44 -3 63 -25 23 -59 21
-67 -3z"/>
<path d="M752 4174 c-29 -20 -28 -39 6 -63 28 -19 28 -19 40 0 17 27 15 66 -4
73 -20 8 -16 9 -42 -10z"/>
<path d="M550 3793 c0 -5 5 -15 10 -23 9 -13 11 -13 20 0 15 22 12 30 -10 30
-11 0 -20 -3 -20 -7z"/>
<path d="M4960 3455 c-9 -11 -10 -25 -4 -47 17 -59 74 -66 74 -8 0 61 -40 92
-70 55z"/>
<path d="M347 3223 c-13 -12 -7 -63 7 -63 15 0 26 21 26 51 0 18 -20 26 -33
12z"/>
<path d="M5056 3203 c9 -35 13 -43 25 -43 10 0 12 30 3 54 -3 9 -12 16 -20 16
-11 0 -13 -7 -8 -27z"/>
<path d="M5007 3188 c6 -36 19 -55 29 -45 12 11 -6 77 -21 77 -11 0 -13 -8 -8
-32z"/>
<path d="M5100 2545 c0 -33 4 -45 13 -42 7 2 12 20 12 42 0 22 -5 40 -12 43
-9 2 -13 -10 -13 -43z"/>
<path d="M5050 2540 c0 -22 5 -40 10 -40 6 0 10 18 10 40 0 22 -4 40 -10 40
-5 0 -10 -18 -10 -40z"/>
<path d="M369 2543 c8 -49 25 -49 29 0 3 31 0 37 -16 37 -16 0 -18 -5 -13 -37z"/>
<path d="M5042 2337 c-22 -27 -25 -71 -5 -95 35 -44 68 -6 61 69 -2 26 -8 35
-24 37 -11 2 -26 -3 -32 -11z"/>
<path d="M467 1870 c6 -22 18 -26 29 -9 3 6 0 15 -7 20 -22 14 -28 11 -22 -11z"/>
<path d="M638 1494 c-32 -17 -33 -22 -12 -52 18 -26 62 -30 71 -6 7 19 -8 66
-22 70 -5 2 -22 -4 -37 -12z"/>
<path d="M4382 1008 c-30 -15 -41 -57 -18 -73 22 -16 53 -8 71 18 19 27 19 32
-1 51 -18 18 -21 19 -52 4z"/>
<path d="M1162 870 l-22 -29 24 -17 c49 -31 93 4 63 50 -23 34 -38 33 -65 -4z"/>
<path d="M4212 868 c-9 -11 -9 -22 1 -49 6 -19 13 -36 14 -38 1 -2 13 6 27 16
l25 20 -27 33 c-23 27 -29 30 -40 18z"/>
<path d="M1326 765 c-21 -21 -20 -31 5 -56 29 -29 73 -23 77 12 5 42 -53 73
-82 44z"/>
<path d="M3050 395 c0 -16 17 -19 44 -9 26 10 18 24 -14 24 -20 0 -30 -5 -30
-15z"/>
<path d="M3050 344 c0 -13 7 -15 32 -10 52 10 58 26 10 26 -32 0 -42 -4 -42
-16z"/>
<path d="M2442 388 c-18 -18 -14 -46 7 -58 31 -16 59 -12 76 13 15 21 14 23
-6 40 -25 20 -60 22 -77 5z"/>
<path d="M2836 377 c-25 -18 -13 -53 20 -61 29 -8 74 16 74 37 0 35 -59 50
-94 24z"/>
</g>
</svg>
